<?xml version="1.0" standalone="no"?>
<!DOCTYPE svg PUBLIC "-//W3C//DTD SVG 20010904//EN"
 "http://www.w3.org/TR/2001/REC-SVG-20010904/DTD/svg10.dtd">
<svg version="1.0" xmlns="http://www.w3.org/2000/svg"
 width="1280.000000pt" height="1266.000000pt" viewBox="0 0 1280.000000 1266.000000"
 preserveAspectRatio="xMidYMid meet">
<metadata>
Created by potrace 1.15, written by Peter Selinger 2001-2017
</metadata>
<g transform="translate(0.000000,1266.000000) scale(0.100000,-0.100000)"
fill="#000000" stroke="none">
<path d="M8280 12654 c-87 -17 -202 -50 -277 -80 -163 -65 -420 -99 -738 -98
-187 0 -251 4 -340 21 -89 17 -113 18 -125 8 -8 -7 -40 -23 -70 -35 -30 -13
-73 -40 -95 -61 -46 -43 -483 -338 -627 -423 -140 -82 -230 -120 -362 -155
-206 -54 -349 -139 -411 -245 -98 -169 -96 -537 5 -763 33 -73 99 -148 146
-165 19 -6 37 -20 40 -30 3 -11 27 -29 52 -41 50 -24 48 -20 77 -147 10 -41
49 -142 87 -225 100 -214 120 -275 122 -365 1 -70 -2 -82 -48 -180 -42 -89
-50 -114 -50 -167 -1 -49 -4 -63 -18 -66 -10 -3 -19 -20 -24 -42 -4 -23 -13
-39 -24 -42 -13 -4 -24 -33 -44 -118 -33 -136 -92 -309 -215 -624 -59 -153
-87 -237 -80 -241 6 -4 -11 -31 -44 -69 -102 -117 -176 -290 -218 -511 -17
-92 -22 -160 -25 -345 l-4 -230 -42 -11 c-49 -12 -80 -27 -96 -46 -8 -10 -9
-77 -4 -236 l8 -222 31 -32 c49 -51 80 -123 102 -238 55 -282 51 -268 134
-430 94 -184 107 -221 107 -321 0 -65 -6 -92 -40 -184 -23 -59 -63 -153 -90
-209 -78 -160 -94 -230 -94 -426 0 -143 4 -180 26 -275 46 -194 127 -390 253
-610 38 -65 83 -153 100 -195 27 -66 35 -76 65 -86 43 -14 63 -39 162 -204 74
-121 155 -222 199 -246 9 -5 65 -83 124 -174 59 -91 131 -194 160 -230 59 -73
69 -92 150 -275 101 -229 164 -303 298 -354 18 -7 27 -18 27 -33 1 -13 7 -34
15 -48 23 -40 18 -47 -47 -69 -105 -35 -168 -49 -451 -101 -284 -53 -443 -88
-515 -114 -32 -11 -63 -14 -115 -10 -45 4 -116 0 -187 -10 -164 -23 -181 -22
-216 15 -33 35 -84 63 -130 73 -18 4 -51 25 -73 47 -41 38 -128 89 -153 89 -7
0 -33 11 -58 24 -25 13 -63 29 -84 36 -21 7 -58 26 -81 42 -26 18 -60 32 -86
35 -43 4 -52 2 -248 -69 -29 -10 -56 -16 -59 -13 -13 13 40 95 113 175 83 90
120 157 131 230 4 25 12 52 19 60 60 71 108 210 166 474 37 171 44 194 80 247
69 101 108 224 124 395 7 69 7 71 -30 129 -21 32 -64 119 -97 194 -95 217
-149 296 -224 327 -58 24 -64 20 -58 -34 15 -118 61 -229 156 -377 25 -39 57
-93 71 -121 l26 -51 -19 -95 c-23 -112 -54 -219 -149 -518 -84 -262 -122 -418
-126 -513 -2 -52 -8 -71 -23 -85 -11 -9 -102 -114 -203 -232 -198 -233 -400
-459 -473 -530 -25 -24 -46 -49 -46 -55 0 -6 -15 -19 -32 -30 -49 -28 -162
-122 -265 -222 -70 -68 -99 -103 -122 -153 -47 -99 -42 -140 18 -140 69 0 158
109 162 200 2 29 14 46 73 103 94 91 187 157 220 157 15 0 38 7 51 16 22 15
28 14 87 -14 186 -88 305 -97 678 -52 85 10 179 21 209 24 l53 5 60 -57 c33
-31 108 -111 166 -177 286 -324 331 -368 427 -416 118 -58 188 -73 335 -73
259 1 563 103 827 277 97 65 228 175 219 184 -9 9 38 41 51 36 26 -10 62 7 65
30 5 36 64 50 183 42 55 -3 109 -12 120 -19 37 -24 110 -33 246 -28 153 5 146
9 173 -83 27 -92 59 -139 108 -163 54 -25 61 -17 59 75 0 45 -9 83 -27 126
-14 34 -37 92 -51 129 -29 77 -44 86 -99 63 -51 -21 -64 -14 -64 33 0 67 31
77 194 67 l114 -7 28 -39 c29 -39 164 -139 189 -139 7 0 18 -7 25 -16 8 -8 25
-14 39 -12 36 4 38 35 7 101 -20 42 -40 64 -85 95 -57 40 -91 79 -91 103 0 19
114 2 174 -26 32 -15 96 -64 157 -121 138 -128 211 -164 299 -149 33 5 40 11
40 29 0 45 -45 110 -118 171 -41 33 -78 68 -83 77 -6 11 -2 35 12 75 30 80
114 160 254 242 61 35 128 76 151 91 38 25 49 27 175 33 294 12 486 84 931
350 l206 123 -17 40 c-22 48 -48 72 -87 80 -23 4 -56 -8 -157 -60 -71 -36
-138 -66 -150 -66 -13 0 -40 -19 -66 -46 -54 -56 -130 -95 -284 -145 l-118
-39 -26 20 c-21 17 -41 20 -115 20 -110 0 -105 2 -393 -188 -146 -97 -247
-156 -300 -177 -115 -45 -117 -47 -185 -130 -71 -87 -107 -110 -156 -100 -41
7 -104 67 -104 98 0 30 96 157 295 387 92 107 173 203 179 212 6 10 18 18 27
18 9 0 29 10 44 22 25 19 27 25 20 67 -19 130 -28 108 80 207 112 102 266 268
370 399 94 117 218 302 211 314 -8 12 238 345 364 493 336 394 548 631 618
692 44 38 81 68 83 66 2 -2 48 31 101 72 53 42 115 86 137 99 l41 23 0 98 c0
54 7 163 16 241 9 78 17 204 17 281 l1 138 48 -5 c27 -4 66 -16 88 -28 35 -20
40 -28 49 -73 5 -28 14 -154 19 -281 8 -192 13 -240 31 -290 12 -33 22 -64 24
-69 4 -15 -145 -110 -290 -186 -74 -38 -167 -92 -206 -119 -68 -46 -187 -161
-187 -181 0 -5 8 -14 19 -19 10 -6 26 -30 36 -53 l17 -43 -43 -35 c-24 -19
-69 -60 -100 -92 -36 -36 -84 -70 -135 -96 -103 -52 -175 -109 -219 -174 -42
-62 -44 -96 -10 -128 27 -26 32 -57 13 -82 -7 -8 -65 -53 -128 -100 -216 -158
-360 -300 -360 -353 0 -48 43 -40 85 17 17 22 61 70 99 106 82 77 336 268 385
289 59 25 160 97 246 175 11 10 67 42 125 72 58 30 161 86 230 126 168 95 276
146 394 185 110 36 131 55 98 87 l-20 21 -99 -32 c-119 -38 -267 -109 -468
-223 -243 -138 -297 -162 -318 -142 -15 15 99 120 174 161 43 23 126 73 186
111 59 38 168 107 240 153 144 91 146 94 117 164 -21 50 -9 76 52 115 87 55
143 51 367 -22 146 -47 154 -58 91 -119 -36 -34 -36 -34 -30 -99 3 -36 19
-103 36 -150 19 -55 30 -105 30 -141 0 -50 3 -57 31 -78 17 -13 42 -48 56 -80
14 -31 44 -80 67 -110 48 -64 53 -109 17 -158 -18 -24 -34 -33 -67 -38 -169
-25 -611 -160 -974 -297 -166 -62 -674 -270 -687 -281 -18 -13 -16 -46 2 -53
8 -3 108 32 223 80 300 123 301 124 1115 397 172 58 389 111 398 97 18 -29
349 46 349 78 0 9 -23 38 -51 66 -44 45 -50 56 -47 87 l3 36 70 -1 c39 0 124
-4 190 -8 135 -9 189 0 244 41 35 27 64 83 75 144 l7 37 -248 -5 c-137 -3
-273 -3 -304 1 -55 7 -55 7 -67 51 -6 24 -44 111 -83 192 -84 176 -94 201
-119 317 -39 176 -99 230 -282 251 -96 11 -160 71 -173 163 -3 27 -1 86 7 133
8 51 13 176 13 317 l0 234 37 31 c31 27 41 46 62 122 29 104 91 287 136 401
40 101 78 166 144 251 82 105 90 126 89 218 -2 89 -25 191 -96 415 -50 160
-75 272 -84 370 -5 62 -8 68 -58 120 -29 30 -80 92 -113 136 -79 106 -152 169
-224 196 l-58 21 0 48 c0 61 13 96 53 137 61 64 168 103 340 123 98 11 507 8
742 -7 l90 -5 78 93 c42 51 129 148 192 216 112 121 186 215 219 280 10 19 42
48 80 72 113 71 203 187 221 283 13 70 -3 122 -67 217 -42 62 -61 102 -65 132
-5 36 -18 56 -84 126 -97 104 -158 195 -299 447 -62 110 -157 266 -211 348
-97 146 -130 214 -143 293 -6 32 -14 44 -40 58 -37 20 -63 60 -99 158 -60 158
-276 492 -415 640 -112 120 -274 272 -355 333 -91 69 -294 195 -373 232 -108
49 -190 65 -319 62 -60 -2 -211 2 -335 9 -124 7 -319 17 -435 23 -243 12 -402
30 -566 64 -110 22 -159 37 -374 115 -78 28 -105 33 -200 36 -60 1 -121 0
-135 -2z m412 -180 c111 -74 275 -140 420 -169 124 -25 469 -55 630 -55 153 0
299 15 434 44 66 14 77 14 150 -4 142 -34 236 -79 475 -230 75 -47 161 -99
191 -115 46 -24 59 -37 86 -90 44 -84 130 -186 191 -225 48 -31 57 -44 140
-204 49 -94 136 -255 195 -358 101 -180 177 -308 638 -1073 253 -421 368 -625
368 -654 0 -14 -23 -47 -62 -87 -50 -52 -63 -72 -67 -106 -5 -36 -11 -45 -45
-63 -21 -11 -128 -112 -237 -224 l-197 -203 -199 -3 c-109 -2 -288 -13 -398
-24 -110 -12 -258 -21 -329 -21 l-129 0 6 108 c4 59 9 153 13 209 l7 101 51
16 c94 29 160 37 321 37 189 -1 325 -10 325 -23 0 -19 -23 -52 -63 -89 -37
-36 -46 -39 -126 -50 -120 -15 -204 -35 -254 -60 -53 -27 -50 -24 -38 -47 35
-66 226 -69 360 -6 31 15 89 32 129 39 151 28 252 129 252 252 0 52 -24 112
-62 155 -21 24 -39 29 -208 58 -238 41 -452 50 -590 26 -145 -25 -170 -33
-171 -59 -4 -159 -27 -273 -103 -512 -63 -200 -117 -338 -223 -577 -57 -129
-83 -172 -83 -139 0 6 -26 -2 -57 -16 -75 -33 -170 -37 -228 -8 -22 10 -94 72
-160 136 -66 64 -127 120 -137 125 -32 17 -79 87 -74 109 5 18 -7 27 -84 63
-49 23 -169 95 -267 160 -223 149 -243 161 -378 215 -323 132 -785 250 -1145
293 -178 22 -647 25 -815 6 -537 -61 -1006 -184 -1474 -386 -46 -20 -86 -34
-89 -31 -12 11 22 177 60 295 22 69 80 231 128 360 116 308 128 356 145 580
12 169 26 240 46 240 4 0 30 29 59 65 63 79 182 177 264 215 34 16 90 56 126
88 36 32 87 73 114 91 61 42 90 100 80 161 -11 65 -31 83 -101 88 l-60 4 -11
67 c-15 91 -107 271 -139 271 -31 0 -51 -35 -59 -102 -9 -81 -23 -88 -66 -36
-19 24 -50 65 -68 93 -32 46 -34 54 -31 125 3 104 -15 244 -35 275 -26 40 -48
48 -88 31 -52 -22 -69 -63 -64 -155 5 -86 39 -175 82 -212 14 -12 41 -49 61
-83 19 -33 58 -87 85 -119 39 -46 50 -66 50 -93 0 -42 26 -56 87 -45 23 5 48
4 56 0 18 -11 54 -94 62 -145 9 -57 -7 -87 -70 -134 -31 -23 -66 -57 -76 -75
-11 -18 -50 -56 -88 -84 -38 -27 -102 -87 -144 -131 -41 -44 -83 -80 -92 -80
-10 0 -31 -11 -47 -25 -16 -14 -33 -23 -38 -20 -8 5 -34 108 -44 175 -3 19
-12 126 -21 238 -8 111 -21 234 -30 273 -28 135 -87 229 -170 269 l-44 21 -53
-27 c-29 -14 -55 -28 -56 -29 -7 -6 35 -91 76 -153 61 -95 78 -144 64 -191
-26 -85 -72 -85 -115 2 -51 105 -61 172 -62 402 0 116 4 236 8 268 l8 57 139
70 c83 43 159 89 190 117 35 31 86 61 158 93 132 57 238 121 552 332 l245 165
70 6 c39 4 209 4 378 0 l309 -6 23 29 23 29 180 -3 c212 -4 252 3 302 58 64
69 77 72 370 91 146 9 276 15 290 12 14 -2 55 -24 92 -49z m-747 -3505 c417
-57 759 -155 1060 -305 201 -99 193 -92 161 -147 -14 -24 -26 -49 -26 -55 0
-6 26 -37 57 -68 42 -41 57 -63 55 -79 -2 -13 11 -40 32 -68 19 -26 32 -49 27
-51 -4 -3 -14 6 -21 19 -18 33 -44 49 -120 74 -50 17 -65 18 -72 9 -12 -19
-10 -30 10 -59 79 -117 82 -124 82 -165 0 -50 21 -80 90 -124 27 -18 50 -36
50 -41 0 -5 -11 -16 -26 -25 -20 -14 -24 -24 -22 -53 3 -34 7 -38 85 -76 91
-45 123 -70 123 -96 0 -27 -17 -32 -52 -15 -17 9 -33 16 -35 16 -1 0 -3 -17
-3 -38 0 -50 19 -74 86 -112 30 -18 53 -37 51 -43 -2 -7 -21 -17 -43 -23 -31
-9 -41 -17 -48 -42 -11 -40 12 -79 52 -88 15 -3 38 -10 52 -16 14 -6 31 -12
38 -12 6 -1 20 -17 30 -36 17 -34 18 -35 79 -35 34 0 64 3 67 6 10 10 -13 72
-36 96 -12 13 -39 28 -61 34 -30 8 -37 13 -28 22 8 8 28 7 80 -6 118 -31 152
-6 131 94 -13 58 -12 59 14 80 35 27 49 57 77 157 15 55 32 94 50 113 38 40
59 38 59 -6 l0 -36 28 15 c16 8 86 32 158 54 164 51 169 53 229 94 l50 34 117
-7 c124 -7 177 -24 206 -67 14 -22 14 -22 -49 -22 -35 0 -122 -7 -194 -15 -71
-8 -158 -15 -192 -15 l-62 0 -40 -52 c-78 -104 -114 -221 -115 -373 -1 -136
10 -168 63 -184 41 -12 103 -66 126 -110 8 -16 31 -73 51 -127 20 -55 43 -108
50 -119 19 -26 18 -29 -12 -65 -15 -17 -26 -42 -26 -55 0 -14 -2 -25 -3 -25
-1 0 -21 27 -44 59 -30 44 -41 69 -41 96 0 60 -21 114 -57 145 -35 31 -71 38
-91 18 -21 -21 -13 -42 25 -74 41 -35 43 -44 29 -185 l-8 -85 34 -45 c42 -55
62 -58 170 -25 104 32 140 54 161 99 26 54 21 105 -27 255 -25 77 -48 163 -52
193 -8 65 -20 81 -96 121 -122 65 -118 129 21 305 28 34 54 70 59 79 8 14 16
15 63 5 30 -6 108 -15 174 -21 151 -13 213 -27 219 -48 2 -10 7 -39 11 -67 3
-27 29 -153 57 -280 92 -424 78 -554 -82 -754 -101 -126 -113 -150 -105 -211
6 -46 6 -48 -29 -68 -39 -23 -56 -55 -56 -105 0 -26 -11 -44 -55 -87 -34 -34
-60 -70 -67 -92 l-11 -38 -101 0 -101 1 -32 47 c-18 26 -39 64 -48 86 -9 21
-25 40 -36 43 -16 5 -19 14 -19 68 0 58 -4 68 -59 161 -52 85 -61 108 -66 164
-4 36 -26 126 -50 200 -88 274 -106 368 -106 551 l0 125 40 75 c22 41 42 90
46 109 7 43 -16 114 -39 118 -33 7 -45 -16 -39 -73 5 -49 2 -60 -37 -132 -24
-43 -48 -80 -53 -82 -59 -22 -83 -145 -74 -383 8 -234 45 -362 222 -773 42
-99 85 -187 94 -195 42 -39 94 -113 115 -166 85 -210 41 -556 -110 -856 -24
-48 -44 -93 -45 -100 0 -7 -34 -42 -75 -78 -227 -196 -545 -561 -846 -971 -74
-101 -152 -202 -174 -224 -21 -23 -90 -100 -153 -173 -138 -160 -397 -415
-542 -534 -358 -294 -751 -509 -1166 -639 -62 -20 -73 -26 -73 -46 0 -25 8
-34 60 -66 l35 -22 -64 -3 c-90 -4 -170 23 -331 113 -144 80 -239 120 -307
131 -38 6 -41 9 -46 43 -3 20 -8 46 -12 58 -7 21 -6 22 26 11 67 -21 103 -21
129 1 l25 21 -57 54 c-64 61 -247 187 -323 222 -65 30 -128 110 -297 374 -72
113 -189 293 -258 400 -215 330 -269 420 -341 565 -186 380 -230 703 -153
1130 25 138 90 318 123 343 40 29 64 86 56 128 -3 19 -24 71 -46 116 -22 46
-39 97 -39 116 0 18 -29 120 -64 226 -35 105 -72 225 -81 266 -20 88 -30 331
-18 410 l9 55 77 -2 c77 -2 138 -10 417 -58 196 -34 184 -35 178 25 -13 131
-129 196 -423 235 -60 9 -141 20 -179 26 l-69 11 6 227 c8 305 35 466 127 754
67 211 61 203 213 308 254 176 634 310 1255 443 l112 24 0 -28 c0 -23 -33 -60
-200 -220 -207 -200 -226 -226 -180 -250 18 -10 39 7 193 157 95 92 189 187
210 209 20 23 47 44 60 47 12 3 55 17 95 31 108 39 241 56 445 56 l178 0 21
36 c24 41 -4 40 273 3z m1372 -496 c16 -21 71 -62 122 -92 117 -69 169 -114
192 -165 19 -42 25 -106 11 -106 -18 0 -78 53 -190 169 -65 66 -126 121 -136
121 -16 0 -55 68 -56 98 0 24 27 12 57 -25z m513 -477 c0 -2 3 -11 6 -20 5
-12 0 -16 -20 -16 -19 0 -26 5 -26 20 0 13 7 20 20 20 11 0 20 -2 20 -4z
m-1527 -5378 c4 -14 -24 -49 -227 -284 -71 -82 -157 -187 -192 -234 -73 -99
-109 -124 -295 -203 -69 -29 -147 -68 -173 -86 -60 -42 -102 -107 -117 -183
-11 -55 -14 -58 -48 -68 -45 -12 -144 -13 -156 -1 -6 5 -26 13 -45 18 l-35 9
-7 90 c-10 144 11 249 61 302 27 27 106 30 172 6 27 -10 86 -18 152 -20 93 -3
109 -2 114 12 3 9 1 24 -5 33 -7 9 -19 32 -28 53 -15 36 -37 50 -97 64 -33 8
-46 32 -26 45 8 5 52 6 100 3 84 -6 85 -6 102 20 23 34 77 68 157 97 49 17 78
36 115 75 40 41 64 55 120 74 108 35 163 65 245 129 75 60 104 72 113 49z
m-3764 -599 c31 -13 65 -40 96 -76 62 -71 98 -93 156 -93 45 0 46 -1 58 -39
16 -55 87 -116 153 -131 63 -15 245 -8 338 14 78 19 210 40 385 62 78 10 232
42 385 81 326 83 441 103 591 103 111 0 120 -2 146 -24 l28 -25 -35 -14 c-19
-9 -87 -25 -150 -36 -72 -13 -137 -32 -175 -50 -40 -20 -88 -33 -144 -40 -176
-22 -322 -76 -399 -146 -72 -64 -48 -124 55 -140 97 -14 96 -24 -8 -62 -70
-26 -114 -36 -172 -38 -94 -5 -117 -11 -117 -33 1 -52 79 -82 210 -82 134 0
254 48 427 170 l93 65 0 73 c0 99 8 112 70 112 32 0 77 11 125 30 42 17 89 30
105 30 69 0 93 -83 45 -154 -14 -20 -25 -40 -25 -45 0 -12 -41 -30 -75 -33
-22 -2 -31 -9 -33 -24 -2 -17 -27 -32 -108 -69 -58 -26 -179 -85 -268 -131
-252 -130 -412 -189 -561 -209 -29 -3 -93 0 -154 9 -58 9 -136 16 -174 16 -66
0 -72 2 -109 36 -41 36 -110 73 -138 74 -18 0 -86 69 -232 235 -58 66 -136
150 -174 187 -38 36 -73 73 -79 81 -5 8 -42 53 -82 100 -77 91 -148 137 -209
137 -53 0 -60 -51 -14 -103 17 -20 30 -46 30 -60 0 -23 -7 -28 -52 -42 -136
-42 -424 -38 -540 7 -36 13 -35 23 5 63 25 25 58 41 149 69 64 20 129 47 145
60 15 12 52 35 81 51 29 16 57 34 63 42 8 9 43 13 126 13 93 0 123 -4 162 -21z"/>
<path d="M7883 12000 c-29 -12 -54 -52 -55 -87 0 -15 11 -67 25 -115 31 -103
93 -381 103 -455 4 -29 9 -53 11 -53 16 0 62 37 82 66 79 115 80 356 2 528
-48 106 -101 143 -168 116z"/>
<path d="M8995 11977 c-73 -40 -150 -114 -203 -195 -43 -67 -112 -229 -112
-265 0 -44 -87 -288 -108 -303 -11 -7 -23 -25 -26 -39 -4 -14 -11 -25 -16 -25
-10 0 -14 26 -30 215 -15 166 -34 265 -70 372 -16 47 -31 87 -33 89 -8 9 -80
-62 -100 -99 -20 -39 -22 -59 -27 -287 -5 -243 -6 -245 -33 -297 -15 -29 -27
-68 -27 -86 0 -20 -7 -40 -17 -48 -43 -36 -56 -126 -22 -160 44 -44 104 -1
130 95 16 58 47 126 58 126 18 0 19 -15 4 -90 -15 -82 -12 -124 14 -152 56
-62 150 29 255 248 27 57 51 119 53 136 5 50 93 307 120 353 13 22 56 78 95
125 75 89 141 181 155 215 15 39 22 105 11 105 -6 0 -38 -15 -71 -33z"/>
<path d="M7012 11875 c-6 -13 -23 -32 -37 -41 -14 -9 -33 -30 -41 -45 -13 -26
-12 -32 25 -103 77 -150 190 -282 406 -479 61 -55 151 -140 202 -189 50 -48
96 -88 102 -88 42 0 50 100 14 180 -11 25 -40 68 -65 95 -24 28 -66 86 -92
130 -101 171 -271 368 -442 513 l-61 51 -11 -24z"/>
<path d="M6435 11808 c-23 -67 -55 -200 -65 -274 -14 -103 -4 -190 28 -253 18
-35 73 -81 97 -81 17 0 25 94 18 209 -7 127 8 201 52 250 l33 36 -26 31 c-15
17 -35 45 -44 62 -14 27 -23 32 -53 32 -20 0 -38 -6 -40 -12z"/>
<path d="M10130 11474 c-14 -3 -100 -41 -191 -85 -103 -50 -190 -85 -228 -92
-43 -8 -61 -16 -61 -27 0 -27 -29 -58 -104 -114 -81 -60 -111 -111 -104 -177
3 -30 6 -34 28 -31 45 6 103 40 198 116 77 63 137 96 175 96 28 0 -42 -103
-158 -230 -175 -194 -221 -286 -216 -436 l1 -32 58 0 c47 1 69 -6 125 -36 95
-50 107 -49 141 22 73 149 202 316 438 564 76 81 137 152 133 158 -3 5 19 23
50 41 57 32 66 48 40 69 -12 10 -23 8 -57 -8 -24 -11 -66 -27 -95 -37 -50 -16
-66 -26 -186 -120 -72 -55 -96 -60 -70 -13 33 60 117 133 186 163 58 26 66 32
71 62 19 108 21 98 -17 122 -36 22 -110 34 -157 25z"/>
<path d="M10814 11311 c-70 -26 -111 -47 -174 -94 -77 -56 -130 -108 -130
-127 0 -9 -28 -40 -63 -68 -100 -81 -283 -275 -395 -419 -57 -73 -108 -135
-113 -138 -5 -4 -9 -10 -9 -15 0 -14 30 -40 45 -40 8 0 54 53 103 118 142 187
319 375 444 470 11 9 80 16 200 23 195 10 278 22 344 50 54 22 108 71 125 111
13 31 12 32 -34 74 -26 23 -68 49 -94 58 -62 21 -183 20 -249 -3z"/>
<path d="M6999 11064 c-48 -107 27 -244 133 -244 66 0 68 3 68 100 l0 87 -38
25 c-21 14 -62 38 -90 52 l-53 27 -20 -47z"/>
<path d="M6719 11018 c-12 -24 -34 -84 -49 -134 l-27 -92 40 -31 c51 -39 77
-39 121 -1 87 77 98 243 17 284 -53 28 -78 21 -102 -26z"/>
<path d="M8730 11034 c-102 -44 -171 -179 -144 -281 5 -19 9 -20 37 -11 90 31
162 100 237 227 30 52 31 56 14 68 -24 17 -101 16 -144 -3z"/>
<path d="M7250 10920 l0 -50 45 0 45 0 0 50 0 50 -45 0 -45 0 0 -50z"/>
<path d="M8017 10935 c-14 -18 -28 -38 -29 -43 -3 -10 65 -62 80 -62 8 0 66
80 61 83 -2 1 -17 11 -34 23 -16 11 -35 23 -41 27 -5 3 -22 -9 -37 -28z"/>
<path d="M9193 10915 c-16 -19 -47 -67 -69 -105 -25 -45 -45 -70 -56 -70 -10
0 -18 -4 -18 -9 0 -12 -114 -5 -139 9 -45 23 -73 -19 -37 -55 17 -17 40 -25
82 -30 33 -4 81 -18 108 -31 28 -13 57 -24 65 -24 9 0 29 -7 46 -16 28 -15 31
-14 48 8 35 43 66 116 77 179 17 105 15 112 -34 147 l-44 32 -29 -35z"/>
<path d="M10859 10910 c-62 -11 -125 -44 -175 -94 -23 -22 -79 -62 -125 -89
-46 -26 -103 -65 -127 -87 -37 -34 -49 -40 -87 -40 -36 0 -45 -3 -45 -17 -1
-49 -40 -102 -118 -162 -93 -70 -122 -107 -129 -161 -5 -36 -3 -40 37 -66 35
-23 57 -29 114 -32 75 -4 90 0 366 97 81 29 131 41 170 41 62 0 100 -8 100
-21 0 -16 -76 -59 -191 -108 -168 -71 -211 -95 -252 -140 -42 -47 -53 -80 -49
-150 2 -24 2 -24 95 -18 50 3 186 18 302 32 312 38 488 48 625 35 164 -17 163
-20 -5 -50 -190 -33 -232 -48 -282 -95 -24 -23 -43 -46 -43 -52 0 -18 89 -43
150 -43 32 0 126 17 219 40 130 32 179 40 249 39 88 -1 162 -16 165 -34 4 -22
-197 -82 -400 -119 -192 -35 -349 -44 -402 -23 -56 23 -166 39 -207 31 -43 -8
-94 -49 -94 -75 0 -39 56 -59 162 -59 115 0 373 16 478 31 211 28 704 180 761
235 16 15 29 34 29 41 0 8 -38 31 -84 53 -50 23 -89 47 -96 61 -7 13 -10 44
-8 75 3 30 3 54 1 54 -2 0 -45 7 -96 15 -166 26 -305 36 -505 36 -171 -1 -213
-4 -317 -26 -66 -14 -134 -25 -151 -25 -35 0 -94 18 -94 29 0 11 137 77 241
116 108 42 273 89 403 115 55 11 102 22 104 25 11 10 -23 110 -52 153 -23 35
-47 55 -96 79 -126 64 -285 63 -635 -3 -104 -19 -218 -39 -253 -43 -60 -7 -62
-7 -56 13 17 57 195 176 294 197 87 19 193 73 234 121 20 23 36 45 36 49 0 7
-28 14 -87 23 -16 2 -49 0 -74 -4z"/>
<path d="M11744 9582 c-47 -3 -52 -6 -67 -38 -42 -88 -6 -147 113 -184 84 -25
371 -62 385 -49 6 6 10 41 10 79 0 65 -2 71 -34 104 -60 62 -118 78 -311 89
-25 1 -68 1 -96 -1z"/>
<path d="M10366 9404 c-9 -24 42 -85 156 -186 95 -85 128 -100 128 -60 0 19
-246 262 -265 262 -7 0 -16 -7 -19 -16z"/>
<path d="M10160 9215 c0 -30 28 -84 52 -98 12 -8 38 -18 57 -22 l33 -7 -7 33
c-11 48 -31 75 -70 93 -42 20 -65 20 -65 1z"/>
<path d="M10484 8953 c-15 -60 51 -112 104 -82 40 22 38 49 -5 82 -48 36 -90
36 -99 0z"/>
<path d="M10295 8570 c-4 -22 -4 -53 0 -70 6 -28 10 -30 50 -30 56 0 73 19 57
64 -7 18 -12 42 -12 54 0 19 -5 22 -44 22 -44 0 -44 0 -51 -40z"/>
<path d="M7247 8825 c-22 -7 -49 -22 -60 -32 -12 -11 -49 -29 -82 -42 -171
-67 -353 -191 -532 -366 -88 -86 -113 -116 -113 -136 0 -24 16 -39 40 -39 4 0
40 33 79 73 83 85 481 368 561 398 29 11 76 19 109 19 67 0 113 25 144 78 l19
32 -36 15 c-43 18 -79 18 -129 0z"/>
<path d="M7150 8569 c-234 -83 -460 -258 -663 -513 -116 -146 -132 -173 -117
-191 23 -28 47 -16 92 45 62 85 687 585 762 609 43 14 51 20 51 41 0 22 -5 25
-35 27 -19 1 -60 -7 -90 -18z"/>
<path d="M7204 8326 c-260 -131 -313 -165 -396 -255 -59 -63 -83 -107 -104
-186 -12 -45 -19 -115 -11 -115 2 0 80 35 173 79 195 90 275 135 360 202 l61
47 169 21 c213 26 259 26 309 1 22 -11 45 -20 52 -20 8 0 13 -12 13 -28 0 -38
40 -93 88 -120 34 -19 41 -20 46 -7 3 9 18 15 36 15 29 0 30 2 30 45 0 56 -19
94 -76 155 -48 51 -64 85 -64 136 0 19 -5 34 -11 34 -6 0 -30 15 -52 33 -31
24 -51 32 -82 32 -30 0 -52 -8 -85 -32 -25 -19 -56 -33 -72 -33 -23 0 -32 8
-53 49 -13 27 -28 52 -33 55 -33 20 -69 7 -298 -108z"/>
<path d="M6353 8122 c-17 -12 -46 -81 -39 -97 14 -38 63 1 72 57 6 36 -10 55
-33 40z"/>
<path d="M10749 7563 c-24 -83 -16 -192 27 -358 36 -138 39 -161 39 -285 l0
-136 -45 -62 c-25 -34 -50 -60 -57 -57 -16 5 -100 -80 -123 -126 -40 -78 -42
-197 -5 -309 15 -45 20 -50 46 -50 43 0 86 25 105 61 17 34 34 165 34 272 0
76 11 108 65 187 24 36 43 54 54 52 25 -4 49 27 72 94 19 53 21 74 16 199 -8
218 -75 448 -154 533 -43 44 -58 41 -74 -15z"/>
<path d="M7287 7210 c-64 -11 -181 -68 -235 -115 -86 -75 -231 -319 -212 -355
27 -51 63 -26 120 85 45 86 66 115 85 115 7 0 20 9 31 21 27 30 53 42 184 84
138 45 176 63 214 104 37 39 29 48 -50 61 -66 11 -69 11 -137 0z"/>
<path d="M8325 7130 c-89 -19 -166 -64 -190 -111 -14 -26 -13 -28 19 -43 68
-32 187 -12 265 44 46 34 85 90 72 103 -13 13 -120 17 -166 7z"/>
<path d="M7471 6961 c-14 -15 -38 -32 -51 -36 -49 -15 -97 -51 -210 -161 -126
-121 -151 -138 -224 -149 -68 -9 -108 -50 -104 -102 3 -38 3 -38 51 -41 41 -3
51 1 77 26 16 17 51 40 77 53 29 14 97 70 170 141 144 138 177 158 265 158
137 0 187 93 69 128 -62 19 -90 15 -120 -17z"/>
<path d="M6554 6881 c-123 -75 -129 -284 -12 -457 60 -90 136 -128 201 -100
20 8 37 20 37 27 0 6 -29 77 -64 158 -69 159 -101 256 -112 339 -4 28 -9 52
-13 52 -3 0 -20 -9 -37 -19z"/>
<path d="M5856 6694 c-11 -28 -6 -60 15 -113 12 -28 19 -55 15 -58 -6 -7 -43
2 -191 44 -67 19 -127 9 -162 -25 -16 -16 -49 -36 -75 -46 -55 -20 -99 -66
-123 -129 -23 -60 -18 -92 15 -92 19 0 26 6 28 26 3 26 132 165 132 142 0 -8
26 -12 83 -12 197 0 320 -70 348 -198 7 -29 10 -55 7 -58 -2 -2 -49 -12 -104
-20 -159 -26 -233 -43 -283 -68 -25 -13 -63 -27 -84 -31 -51 -10 -83 -54 -96
-136 -14 -86 -14 -90 7 -90 11 0 33 -7 51 -16 25 -12 38 -14 59 -6 15 6 43 14
62 17 19 4 50 16 69 28 45 27 168 36 177 13 10 -26 -14 -103 -67 -218 -75
-160 -79 -195 -44 -375 16 -81 29 -180 30 -218 l0 -71 -54 -62 c-30 -34 -62
-62 -71 -62 -15 0 -18 -12 -22 -64 -3 -58 -9 -72 -52 -134 -26 -38 -51 -86
-56 -106 -7 -33 -4 -43 39 -109 52 -79 276 -327 296 -327 7 0 16 -7 19 -16 4
-10 15 -14 33 -12 27 3 28 4 25 58 -5 73 -28 124 -90 191 -64 70 -75 96 -52
119 10 10 19 23 22 31 3 10 20 10 89 1 48 -7 117 -9 159 -6 l75 7 50 79 c28
44 67 108 89 142 51 81 76 156 76 230 l0 61 74 33 c124 56 162 33 112 -67 -14
-28 -26 -64 -26 -80 0 -28 2 -29 59 -36 79 -9 185 8 336 56 69 21 156 44 193
50 l67 12 196 194 196 194 134 6 c262 12 276 10 381 -45 10 -5 38 53 38 80 0
13 -16 51 -36 85 -41 69 -60 77 -154 62 -30 -5 -91 -12 -136 -15 l-80 -7 -28
34 c-72 89 -98 101 -144 65 -19 -15 -41 -21 -77 -21 -45 0 -64 8 -148 59 -113
68 -165 83 -222 64 -21 -7 -40 -19 -42 -25 -7 -21 89 -106 166 -148 88 -47
151 -103 151 -134 0 -32 -33 -91 -72 -127 -65 -62 -131 -84 -365 -124 -167
-28 -265 -49 -305 -65 -23 -9 -24 24 -3 64 17 33 61 53 160 71 81 15 194 68
223 105 11 14 26 25 33 25 19 1 54 30 67 56 18 34 -71 235 -127 289 l-31 29
-23 -22 c-28 -29 -27 -83 4 -159 16 -38 24 -78 24 -117 0 -53 -3 -61 -28 -80
-18 -13 -30 -17 -35 -10 -12 19 -73 34 -133 34 -64 0 -159 -18 -261 -50 -55
-17 -69 -25 -74 -45 -7 -30 2 -74 21 -95 8 -8 18 -27 24 -42 10 -27 8 -28 -53
-58 -66 -31 -92 -37 -81 -20 4 6 -22 10 -70 10 -48 0 -74 4 -70 10 3 6 2 10
-4 10 -5 0 -11 12 -13 28 -3 31 -44 45 -54 18 -5 -12 -22 -16 -76 -16 l-69 0
-24 53 c-39 84 -51 181 -37 283 15 101 42 189 128 418 111 295 137 453 99 601
-23 87 -63 165 -85 165 -10 0 -32 11 -48 25 -34 29 -87 34 -96 9z m-256 -754
c0 -30 -22 -50 -55 -50 -13 0 -15 6 -10 33 10 44 13 47 41 47 20 0 24 -5 24
-30z m485 -970 c3 -5 -2 -37 -11 -71 -12 -43 -39 -92 -95 -171 -43 -60 -81
-118 -84 -129 -4 -13 -16 -19 -36 -19 -19 0 -29 -5 -29 -15 0 -8 -9 -15 -20
-15 -36 0 -45 37 -45 178 l0 133 75 42 c41 23 84 46 95 51 55 24 139 33 150
16z"/>
<path d="M8170 6698 c-52 -14 -54 -22 -21 -56 39 -39 115 -67 216 -81 110 -16
190 3 215 48 14 28 15 26 -39 50 -109 47 -281 65 -371 39z"/>
<path d="M7600 6614 c-58 -59 -116 -88 -236 -119 -54 -13 -101 -30 -106 -37
-20 -32 0 -68 37 -68 39 0 181 41 241 69 123 58 202 159 150 193 -23 16 -43 7
-86 -38z"/>
<path d="M8080 5647 c0 -42 3 -46 77 -108 126 -104 144 -157 142 -420 -1 -126
2 -164 18 -207 10 -29 23 -52 28 -51 17 5 84 91 105 137 126 268 1 599 -256
677 -27 8 -64 15 -81 15 -32 0 -33 -1 -33 -43z"/>
<path d="M7613 5207 c-65 -59 -114 -91 -278 -179 -160 -86 -166 -89 -450 -197
-274 -104 -342 -132 -443 -186 -110 -59 -207 -124 -272 -182 -29 -26 -61 -48
-71 -48 -23 -2 -75 -50 -95 -87 -15 -28 -19 -135 -6 -155 11 -18 82 17 115 56
14 18 35 55 44 83 28 79 90 127 329 255 157 84 263 132 424 193 392 148 524
212 675 325 96 73 127 108 123 136 -5 41 -42 36 -95 -14z"/>
<path d="M9510 4921 c0 -16 -12 -49 -26 -74 -22 -40 -24 -54 -19 -104 l6 -58
-276 -310 c-233 -262 -284 -314 -329 -337 -58 -29 -72 -49 -56 -79 16 -29 47
-23 148 31 322 171 518 384 581 631 11 45 27 79 44 97 35 36 47 79 47 164 l0
68 -60 0 c-59 0 -60 0 -60 -29z"/>
<path d="M6102 3908 c-37 -167 -39 -331 -7 -479 9 -41 36 -115 60 -165 53
-110 120 -181 226 -240 41 -23 95 -53 120 -68 172 -98 418 -114 619 -39 232
86 434 235 748 552 184 186 203 208 200 235 -2 25 -8 32 -30 34 -21 3 -36 -6
-65 -36 -35 -37 -93 -61 -771 -330 l-733 -290 -39 41 c-83 89 -119 193 -175
512 -48 270 -44 259 -89 294 -21 17 -42 31 -46 31 -4 0 -12 -24 -18 -52z"/>
<path d="M2720 6456 c-261 -88 -299 -103 -420 -168 -119 -63 -199 -120 -269
-192 -46 -47 -52 -57 -41 -70 16 -21 44 -20 61 0 7 9 22 20 34 24 39 15 877
182 882 176 13 -13 -72 -118 -130 -160 -90 -68 -196 -107 -384 -142 -32 -6
-30 -50 4 -86 57 -59 23 -133 -157 -338 -51 -58 -105 -125 -120 -148 l-27 -44
23 -24 c13 -12 24 -30 24 -40 0 -9 6 -28 14 -42 8 -15 21 -97 30 -182 16 -160
41 -300 77 -445 24 -96 28 -98 99 -62 82 41 102 80 195 382 64 210 86 265 109
277 49 28 459 2 626 -39 86 -21 121 -39 280 -146 170 -114 233 -160 281 -207
31 -30 163 -110 182 -110 2 0 7 14 11 31 16 80 -46 171 -156 229 -35 19 -115
77 -178 130 -152 127 -238 194 -276 213 -43 22 -180 46 -302 54 -71 4 -116 12
-140 25 -41 21 -83 22 -199 8 -57 -7 -89 -7 -109 0 -22 9 -30 8 -33 -1 -2 -7
-23 -32 -47 -55 -34 -33 -44 -49 -44 -75 0 -18 -16 -79 -36 -136 -36 -102 -37
-103 -76 -115 -62 -18 -86 0 -124 97 -17 44 -39 96 -48 116 -29 64 -23 80 62
165 43 44 114 129 157 189 120 168 192 251 259 302 59 44 149 93 172 93 7 0
35 46 63 103 54 109 62 155 37 205 -7 15 -16 57 -19 95 -3 47 -11 77 -27 100
-24 34 -69 74 -91 81 -8 3 -111 -28 -229 -68z"/>
<path d="M1148 6514 c-5 -4 -8 -18 -8 -32 0 -14 -16 -43 -38 -68 -21 -23 -53
-70 -71 -104 -18 -33 -36 -60 -41 -60 -20 0 -104 -100 -135 -162 -43 -86 -53
-149 -31 -183 16 -24 22 -55 11 -55 -4 0 -19 7 -35 15 l-29 15 -5 -43 c-37
-314 -50 -703 -27 -837 17 -99 70 -260 86 -260 18 0 76 -137 82 -195 4 -39 2
-55 -11 -68 -16 -15 -19 -15 -51 0 -19 9 -35 23 -35 30 0 7 -22 24 -50 38 -31
16 -50 32 -50 43 0 15 -24 85 -60 177 -6 16 -17 62 -25 101 -15 81 -40 134
-96 211 -22 29 -39 60 -39 70 -1 66 -38 175 -112 330 -69 142 -87 172 -104
173 -12 0 -47 12 -78 26 -56 25 -104 32 -143 20 -25 -8 -50 -110 -33 -131 9
-11 8 -40 -4 -124 -26 -178 -19 -331 24 -536 45 -214 120 -408 269 -700 59
-115 117 -242 129 -281 12 -39 31 -83 43 -98 24 -30 69 -56 98 -56 26 0 183
-206 201 -265 9 -26 43 -71 104 -135 l91 -95 77 -265 c118 -406 131 -466 129
-594 -1 -130 12 -195 98 -458 73 -226 85 -279 79 -357 -5 -76 -23 -102 -108
-158 -99 -66 -200 -162 -281 -270 -40 -54 -110 -136 -154 -183 -45 -47 -91
-106 -103 -131 -20 -41 -47 -157 -38 -166 1 -2 23 4 48 12 63 22 117 79 168
176 99 193 248 374 380 465 50 34 72 44 84 37 14 -8 13 -14 -13 -53 -16 -25
-87 -106 -158 -181 -135 -144 -186 -216 -201 -287 -9 -38 -8 -44 11 -57 30
-21 33 -20 82 31 59 61 89 59 93 -6 2 -24 -2 -81 -8 -127 -14 -105 -3 -149 47
-193 31 -28 37 -30 45 -16 5 9 22 16 38 16 51 0 62 43 70 280 9 262 19 295
158 528 50 85 55 99 53 145 -3 86 -37 232 -96 417 -74 231 -90 300 -110 455
-19 149 -46 282 -105 515 -89 355 -164 515 -302 645 -75 72 -94 86 -115 89
-10 1 -49 43 -86 92 -37 49 -84 105 -104 126 -19 20 -33 40 -30 46 15 23 -17
86 -66 133 -28 27 -56 49 -62 49 -6 0 -23 26 -38 58 -30 67 -362 1405 -353
1427 3 9 19 15 40 15 63 0 111 -90 166 -310 64 -253 110 -338 214 -388 41 -20
43 -23 102 -200 21 -62 26 -87 18 -99 -6 -9 -39 -26 -75 -38 -50 -17 -65 -26
-67 -43 -5 -33 20 -36 92 -12 l64 21 33 -20 c19 -12 44 -21 57 -21 12 0 22 -6
22 -13 0 -7 32 -44 71 -82 84 -84 117 -136 128 -204 8 -50 8 -51 -28 -77 -57
-42 -101 -87 -117 -116 -12 -23 -12 -29 1 -42 20 -19 38 -12 56 20 7 14 48 52
89 83 94 71 124 78 385 90 199 9 242 19 279 60 19 21 19 21 -30 43 -42 19 -70
23 -207 26 l-158 4 -70 145 c-68 138 -125 218 -180 249 -8 5 -31 47 -51 94
-49 114 -58 231 -58 720 0 413 1 417 59 479 39 42 99 179 119 273 20 88 45
141 90 191 21 22 34 27 74 27 56 0 125 -25 138 -51 17 -30 11 -215 -10 -343
-18 -107 -23 -123 -47 -141 -90 -69 -123 -97 -123 -104 0 -5 14 -12 30 -16 38
-8 50 -31 50 -93 0 -39 5 -53 25 -72 l25 -23 0 -216 -1 -216 -29 -39 c-22 -29
-38 -40 -62 -43 -44 -4 -58 -10 -58 -24 0 -7 13 -9 39 -4 47 8 99 -21 172 -96
68 -70 118 -150 227 -366 l97 -193 112 0 c76 0 113 4 115 12 5 15 106 -4 180
-35 79 -32 168 -86 168 -102 0 -8 28 -43 63 -79 54 -58 67 -66 99 -66 20 0 46
8 58 18 21 17 22 22 11 54 -16 50 -86 111 -155 137 -32 12 -90 39 -129 60 -72
40 -168 74 -242 86 -49 8 -85 26 -131 67 -104 92 -156 261 -185 613 -7 84 -18
158 -25 169 -16 23 -19 13 89 254 66 145 106 220 140 263 55 68 60 104 16 104
-20 0 -40 -17 -89 -75 -151 -181 -221 -320 -240 -479 -8 -71 -29 -177 -51
-263 -8 -32 -14 -38 -35 -38 -14 0 -39 9 -55 21 l-30 21 4 246 c2 178 8 275
21 347 14 82 16 109 6 150 -10 42 -8 69 9 171 22 128 27 272 11 339 -6 25 -6
41 0 43 18 6 10 51 -11 71 -12 11 -43 27 -68 36 -51 18 -192 32 -203 19z"/>
<path d="M2917 4860 c-11 -41 15 -92 67 -132 60 -45 78 -75 80 -138 1 -58 -15
-80 -87 -110 -57 -25 -107 -57 -107 -69 0 -5 19 -20 43 -35 87 -55 127 -142
183 -395 19 -86 41 -178 50 -206 21 -64 55 -126 66 -119 4 3 37 -16 73 -42 36
-25 137 -79 225 -119 175 -81 245 -124 247 -152 1 -20 103 -265 148 -353 37
-75 106 -178 147 -219 33 -34 114 -91 130 -91 14 0 9 174 -8 231 -9 30 -41
101 -71 159 -122 229 -124 234 -95 298 12 26 33 82 48 124 36 105 41 111 82
97 17 -6 32 -17 32 -23 0 -47 95 -62 135 -21 35 34 32 60 -7 76 -41 17 -110
18 -116 1 -7 -22 -44 -12 -75 21 -40 42 -80 133 -103 232 -33 142 -22 455 22
611 5 19 -1 22 -73 37 -82 16 -125 14 -143 -8 -8 -9 -8 -100 -1 -317 11 -311
20 -386 62 -498 26 -67 28 -154 6 -196 -9 -18 -30 -44 -48 -58 l-31 -26 -52
30 c-28 17 -80 45 -116 62 -207 98 -269 128 -300 150 l-34 25 -2 124 c-2 132
-10 171 -79 399 -62 206 -54 333 29 421 l25 27 137 -44 c78 -26 149 -55 165
-69 32 -26 59 -24 59 5 0 25 -84 98 -146 126 -64 30 -148 46 -197 38 -35 -5
-44 -1 -113 51 -92 69 -155 102 -210 111 -37 5 -42 4 -47 -16z"/>
<path d="M4125 4645 c-18 -17 -25 -35 -25 -63 0 -54 19 -69 70 -53 21 6 45 10
52 9 18 -4 23 47 8 82 -10 25 -46 50 -71 50 -5 0 -21 -11 -34 -25z"/>
<path d="M10468 4010 c-103 -18 -338 -115 -338 -140 0 -6 -4 -10 -10 -10 -17
0 -294 -121 -309 -135 -20 -19 -5 -55 23 -55 13 0 88 28 166 61 116 50 154 62
197 62 48 0 74 -7 62 -16 -2 -2 -73 -40 -158 -86 -463 -248 -873 -540 -1341
-953 -226 -200 -620 -585 -620 -607 0 -18 18 -41 33 -41 5 0 62 51 126 113 90
88 308 259 991 779 809 615 998 750 1008 720 1 -5 28 5 59 24 30 18 92 45 137
60 126 42 198 78 240 122 l38 40 -46 27 c-75 44 -147 53 -258 35z"/>
<path d="M12030 3841 c-14 -36 -63 -86 -113 -118 -20 -13 -108 -48 -195 -77
-87 -30 -181 -66 -210 -80 -53 -27 -122 -88 -122 -108 0 -21 42 -73 75 -95 61
-41 106 -46 325 -38 l206 7 48 -56 c43 -51 51 -56 87 -56 37 0 41 3 56 38 26
60 20 158 -21 316 -23 89 -36 161 -36 202 0 51 -3 64 -15 64 -9 0 -29 7 -44
15 -28 14 -29 13 -41 -14z"/>
<path d="M1327 3799 c-24 -14 -21 -45 5 -63 12 -9 19 -16 14 -16 -4 0 16 -27
47 -59 64 -70 132 -170 178 -263 l33 -68 73 0 c71 0 76 -2 164 -55 50 -30 98
-57 107 -60 9 -2 29 -24 44 -47 15 -24 79 -99 143 -168 90 -95 133 -152 186
-241 38 -64 81 -132 96 -150 27 -32 108 -89 126 -89 14 0 -1 132 -23 204 -43
136 -166 297 -327 426 -109 88 -196 145 -201 132 -4 -13 -67 16 -162 76 -50
32 -66 49 -85 90 -73 158 -200 281 -352 341 -34 13 -54 16 -66 10z"/>
<path d="M2440 3731 c-40 -8 -87 -36 -100 -61 -6 -12 -27 -19 -65 -24 -76 -9
-125 -30 -125 -54 0 -35 23 -44 66 -25 29 12 82 18 209 22 l170 6 3 33 c7 72
-66 120 -158 103z"/>
<path d="M9003 3274 c-10 -26 10 -69 31 -69 26 0 44 30 30 52 -16 25 -54 36
-61 17z"/>
<path d="M9889 3071 c-64 -22 -181 -67 -260 -100 -182 -78 -599 -291 -613
-314 -14 -22 3 -51 32 -55 11 -2 83 31 159 72 264 142 515 252 768 337 59 20
71 28 73 48 3 22 -19 52 -37 51 -3 -1 -58 -18 -122 -39z"/>
<path d="M2964 2323 c3 -10 8 -31 11 -48 21 -97 61 -191 106 -252 45 -58 49
-69 49 -119 0 -54 0 -54 31 -54 17 0 40 -5 51 -11 26 -14 44 6 54 58 8 44 -2
80 -30 106 -12 12 -28 45 -35 72 -36 146 -108 233 -214 259 -24 6 -28 4 -23
-11z"/>
<path d="M2879 1017 c-46 -44 -278 -135 -574 -227 -282 -87 -380 -113 -515
-135 -112 -19 -130 -26 -130 -57 0 -28 24 -32 114 -19 271 41 647 153 991 296
75 31 143 54 151 51 11 -4 -2 -26 -54 -88 -154 -184 -259 -360 -297 -502 -18
-67 -18 -69 0 -82 40 -30 121 -12 254 54 l54 27 32 100 c48 147 79 224 156
384 38 79 69 145 69 147 0 2 -6 4 -12 4 -7 0 -42 18 -78 40 -81 50 -114 51
-161 7z"/>
<path d="M553 591 c-5 -20 -8 -88 -7 -151 1 -122 18 -229 60 -362 l25 -78 63
0 c54 0 66 3 86 25 30 31 37 117 22 239 -13 97 -1 141 45 172 l32 22 -50 6
c-45 6 -56 13 -117 76 -53 55 -76 71 -109 79 l-43 9 -7 -37z"/>
</g>
</svg>
